<svg viewBox="0 0 24 24" fill="#007396" xmlns="http://www.w3.org/2000/svg" className="w-6 h-6">
        <path d="M8.851 18.56s-.917.534.653.714c1.902.218 2.874.187 4.969-.211 0 0 .552.346 1.321.646-4.699 2.013-10.633-.118-6.943-1.149M8.276 15.933s-1.028.761.542.924c2.032.209 3.636.227 6.413-.308 0 0 .384.389.987.602-5.679 1.661-12.007.13-7.942-1.218M13.116 11.475c1.158 1.333-.304 2.533-.304 2.533s2.939-1.518 1.589-3.418c-1.261-1.772-2.228-2.652 3.007-5.688 0-.001-8.216 2.051-4.292 6.573M19.33 20.504s.681.561-.747.996c-2.712.822-11.288 1.07-13.669.033-.856-.373.748-.89 1.254-.998.527-.114.828-.093.828-.093-.953-.671-6.156 1.317-2.643 1.887 9.575 1.553 17.462-.7 14.977-.825M9.292 13.981s-4.362 1.039-1.544 1.412c1.189.159 3.551.123 5.729-.062 1.792-.152 3.584-.477 3.584-.477s-.631.271-1.094.587c-4.421 1.162-12.986.623-10.522-.568 2.082-1.006 3.847-.892 3.847-.892M17.116 17.502c4.503-2.34 2.421-4.589.968-4.285-.355.073-.515.136-.515.136s.132-.207.385-.297c2.875-1.011 5.086 2.981-.928 4.615 0-.001.07-.063.09-.169M15.016 0s2.494 2.494-2.365 6.33c-3.896 3.077-.888 4.832-.001 6.836-2.281-2.053-3.952-3.863-2.822-5.562C11.488 4.913 16.455 3.52 15.016 0" />
      </svg>