<!-- <svg viewBox="0 0 24 24" fill="#3776AB" xmlns="http://www.w3.org/2000/svg" className="w-6 h-6">
        <path d="M14.25.18l.9.2.73.26.59.3.45.32.34.34.25.34.16.33.1.3.04.26.02.2-.01.13V8.5l-.05.63-.13.55-.21.46-.26.38-.3.31-.33.25-.35.19-.35.14-.33.1-.3.07-.26.04-.21.02H8.77l-.69.05-.59.14-.5.22-.41.27-.33.32-.27.35-.2.36-.15.37-.1.35-.07.32-.04.27-.02.21v3.06H3.17l-.21-.03-.28-.07-.32-.12-.35-.18-.36-.26-.36-.36-.35-.46-.32-.59-.28-.73-.21-.88-.14-1.05-.05-1.23.06-1.22.16-1.04.24-.87.32-.71.36-.57.4-.44.42-.33.42-.24.4-.16.36-.1.32-.05.24-.01h.16l.06.01h8.16v-.83H6.18l-.01-2.75-.02-.37.05-.34.11-.31.17-.28.25-.26.31-.23.38-.2.44-.18.51-.15.58-.12.64-.1.71-.06.77-.04.84-.02 1.27.05zm-6.3 1.98l-.23.33-.08.41.08.41.23.34.33.22.41.09.41-.09.33-.22.23-.34.08-.41-.08-.41-.23-.33-.33-.22-.41-.09-.41.09-.33.22zM21.1 6.11l.28.06.32.12.35.18.36.27.36.35.35.47.32.59.28.73.21.88.14 1.04.05 1.23-.06 1.23-.16 1.04-.24.86-.32.71-.36.57-.4.45-.42.33-.42.24-.4.16-.36.09-.32.05-.24.02-.16-.01h-8.22v.82h5.84l.01 2.76.02.36-.05.34-.11.31-.17.29-.25.25-.31.24-.38.2-.44.17-.51.15-.58.13-.64.09-.71.07-.77.04-.84.01-1.27-.04-1.07-.14-.9-.2-.73-.25-.59-.3-.45-.33-.34-.34-.25-.34-.16-.33-.1-.3-.04-.25-.02-.2.01-.13v-5.34l.05-.64.13-.54.21-.46.26-.38.3-.32.33-.24.35-.2.35-.14.33-.1.3-.06.26-.04.21-.02.13-.01h5.84l.69-.05.59-.14.5-.21.41-.28.33-.32.27-.35.2-.36.15-.36.1-.35.07-.32.04-.28.02-.21V6.07h2.09l.14.01.21.03zm-6.47 14.25l-.23.33-.08.41.08.41.23.33.33.23.41.08.41-.08.33-.23.23-.33.08-.41-.08-.41-.23-.33-.33-.23-.41-.08-.41.08-.33.23z" />
      </svg> -->


      <svg xmlns="http://www.w3.org/2000/svg" fill="#0066FF" viewBox="0 0 24 25" class="change-lang-btn-icon svg replaced-svg">
  <path fill-opacity=".4" d="M9.091 11.663h5.782c1.61 0 2.877-1.353 2.877-2.96V3.225c0-1.559-1.315-2.73-2.886-2.99A18.088 18.088 0 0011.853 0a16.25 16.25 0 00-2.738.235c-2.45.43-2.866 1.33-2.866 2.99v2.132H12v.788H4.025C2.342 6.145.868 7.152.408 9.064c-.532 2.191-.556 3.531 0 5.82.411 1.702 1.394 2.888 3.076 2.888h1.972V15.2c0-1.9 1.672-3.538 3.635-3.538zm-.364-7.707c-.6 0-1.087-.489-1.087-1.093 0-.606.486-1.1 1.087-1.1.597 0 1.086.494 1.086 1.1a1.09 1.09 0 01-1.086 1.093zm14.83 5.108c-.416-1.665-1.21-2.919-2.895-2.919h-2.118v2.558c0 1.98-1.744 3.551-3.671 3.551H9.091c-1.584 0-2.842 1.444-2.842 3.02v5.479c0 1.558 1.338 2.475 2.868 2.923 1.833.535 3.568.632 5.76 0 1.458-.42 2.873-1.264 2.873-2.923V18.56H12v-.788h8.662c1.682 0 2.31-1.138 2.895-2.89.604-1.801.578-3.506 0-5.818zm-8.32 10.958c.6 0 1.087.488 1.087 1.093 0 .606-.486 1.1-1.087 1.1a1.095 1.095 0 01-1.086-1.1 1.09 1.09 0 011.086-1.093z"></path>
</svg>